<svg width="242" height="200" viewBox="0 0 242 200" fill="none" xmlns="http://www.w3.org/2000/svg">
<path d="M31.1362 83.8786L116.172 30.2095L201.207 83.8786V162.183H31.1362V83.8786Z" fill="#E6E7E8"/>
<path fill-rule="evenodd" clip-rule="evenodd" d="M30.7423 162.183C30.7423 162.4 30.9186 162.576 31.1361 162.576H201.207C201.422 162.595 201.611 162.437 201.632 162.222V83.9179C201.632 83.7822 201.56 83.6567 201.443 83.5875L116.376 29.9105C116.248 29.8326 116.087 29.8326 115.959 29.9105L30.9234 83.5481C30.8084 83.6182 30.7394 83.744 30.7423 83.8786V162.183ZM200.852 161.79H31.5063V84.0989L116.171 30.6973L200.852 84.0989V161.79Z" fill="#231F20"/>
<path d="M136.887 62.8C139.714 58.1341 140.431 52.4612 140.171 47.0163C139.983 41.0594 138.41 35.2278 135.579 29.9817C134.429 27.7287 132.741 25.7938 130.664 24.348C128.112 22.7744 126.372 23.8366 123.875 23.4117C121.764 23.0498 119.558 21.5469 117.219 21.1614C111.822 20.2397 106.277 21.3983 101.702 24.4031C93.6995 29.8086 90.0054 40.1395 81.7351 45.1594C73.6301 50.0535 63.2567 48.5821 54.1671 51.2888C50.3304 52.4374 46.7557 54.3245 43.644 56.8438C41.4944 58.4877 39.7353 60.5861 38.4928 62.9888C36.3582 67.4422 36.9175 72.7454 38.4928 77.4427C40.0681 82.2738 42.7303 86.8846 46.8577 89.8824C50.3155 92.3766 54.5609 93.5254 58.7591 94.2807C64.4696 95.3115 70.3849 95.697 76.0876 94.4617C80.2963 93.6132 84.219 91.7068 87.4849 88.9225C88.887 87.6714 89.6589 85.964 90.9664 84.7208C92.7701 83.0134 95.582 81.967 97.693 80.6608C100.993 78.6072 104.301 76.4199 108.066 75.4442C117.629 72.9579 131.121 72.2812 136.887 62.8Z" fill="white"/>
<path fill-rule="evenodd" clip-rule="evenodd" d="M58.6725 94.6661C61.9035 95.2768 65.1827 95.598 68.4709 95.626C71.053 95.6556 73.6306 95.4049 76.1585 94.8785C80.4532 94.0141 84.4521 92.0574 87.7685 89.1977C88.4871 88.5163 89.1265 87.7561 89.6746 86.9316C90.1381 86.2363 90.6655 85.5857 91.2499 84.9882C92.5414 83.8998 93.9749 82.9919 95.5112 82.2894C96.3382 81.8645 97.1259 81.4317 97.9135 80.9675L98.7012 80.4561L98.7657 80.4159C101.731 78.5716 104.783 76.673 108.153 75.806C109.96 75.3341 111.888 74.9407 113.931 74.5239L114.242 74.4605L114.242 74.4603C122.796 72.7136 132.468 70.7386 137.194 63.0122C139.746 58.8342 140.841 53.4838 140.534 47.0319C140.352 41.0154 138.764 35.1249 135.894 29.832C134.721 27.5242 132.988 25.5468 130.853 24.0803C129.508 23.25 127.913 22.9186 126.348 23.144C125.545 23.219 124.736 23.2005 123.938 23.0889C122.882 22.8513 121.854 22.5005 120.874 22.0424C119.721 21.4816 118.505 21.0641 117.25 20.7993C111.767 19.877 106.137 21.0664 101.497 24.1275C97.5906 26.787 94.6605 30.6345 91.8328 34.3562L91.8048 34.393C88.8283 38.3078 85.7547 42.3504 81.546 44.8917C76.7098 47.8108 71.1569 48.4246 65.2809 49.0698C61.4955 49.3782 57.7447 50.0207 54.0726 50.9896C50.1924 52.1504 46.5773 54.059 43.4314 56.6075C41.2317 58.2854 39.4387 60.4369 38.1856 62.9021C35.7675 67.8905 36.8387 73.6894 38.1305 77.6235C39.9421 83.1313 42.8643 87.5139 46.6214 90.2127C50.3785 92.9115 55.0335 94.013 58.6725 94.6661ZM101.907 24.7648C105.377 22.4558 109.458 21.2339 113.627 21.2556C114.829 21.2648 116.028 21.3754 117.211 21.5861C118.398 21.8336 119.551 22.2219 120.645 22.7427C121.672 23.2271 122.75 23.594 123.859 23.8364C124.712 23.9564 125.576 23.9802 126.435 23.9072C127.848 23.6717 129.298 23.951 130.522 24.694C132.551 26.1048 134.197 27.9975 135.311 30.2018C138.126 35.3952 139.683 41.1757 139.856 47.0791C140.155 53.3894 139.069 58.6296 136.627 62.6582C132.09 70.1172 122.559 72.0607 114.139 73.7681C111.957 74.2087 109.941 74.6257 108.019 75.1214C104.533 76.0058 101.428 77.9411 98.4265 79.8123L98.3782 79.8424L97.5433 80.3617C96.8108 80.8101 96.0231 81.2193 95.1803 81.652C93.5827 82.3842 92.0933 83.332 90.7537 84.4689C90.1302 85.0955 89.5684 85.7806 89.076 86.5146C88.5567 87.2955 87.9517 88.0159 87.2723 88.6626C84.0494 91.4371 80.1645 93.3341 75.9931 94.1704C71.0702 95.2405 65.4621 95.1775 58.83 93.9894C55.2698 93.3442 50.6857 92.2505 47.0703 89.6462C43.455 87.0418 40.6116 82.8087 38.8472 77.3875C37.5791 73.5714 36.563 67.9928 38.8472 63.2247C40.0628 60.867 41.7905 58.8105 43.904 57.2055C46.977 54.71 50.509 52.839 54.301 51.6977C57.9289 50.7405 61.6351 50.1086 65.3755 49.8094L65.4295 49.8034C71.0918 49.1758 76.9619 48.5252 81.9162 45.5291C86.2467 42.9226 89.3694 38.812 92.3879 34.8388L92.4078 34.8126L92.4486 34.7589C95.2321 31.1011 98.1054 27.3252 101.907 24.7648Z" fill="#231F20"/>
<path d="M169.023 55.0891L164.88 70.6682L174.859 72.4464L180.546 51.6349C180.546 51.6349 171.677 44.8525 170.307 44.8053C168.936 44.7581 169.023 55.0891 169.023 55.0891Z" fill="white"/>
<path fill-rule="evenodd" clip-rule="evenodd" d="M174.789 72.8398H174.86C175.025 72.8376 175.171 72.73 175.222 72.5723L180.917 51.7609C180.957 51.6061 180.901 51.4422 180.775 51.3439C179.271 50.203 171.725 44.4828 170.315 44.4356C170.119 44.4279 169.929 44.5054 169.795 44.648C168.629 45.7732 168.629 53.4211 168.629 55.0891L164.518 70.5974C164.487 70.7032 164.503 70.817 164.562 70.9102C164.62 71.0034 164.716 71.0671 164.825 71.0852L174.789 72.8398ZM174.592 71.9979L165.408 70.3771L169.441 55.215C169.445 55.1811 169.445 55.1467 169.441 55.1127C169.409 50.7065 169.756 45.6158 170.315 45.1988C171.071 45.2224 175.844 48.5428 180.105 51.7845L174.592 71.9979Z" fill="#231F20"/>
<path d="M158.24 44.8999C158.24 44.8999 159.65 48.0471 161.682 48.5586C163.714 49.07 168.133 46.8905 168.645 47.1738C169.157 47.457 180.814 56.175 181.949 56.4347C183.083 56.6943 185.17 53.9483 186.06 50.683C186.06 50.683 174.718 42.9564 173.978 42.1381C173.237 41.3198 172.355 36.4258 171.252 34.6318L158.24 44.8999Z" fill="white"/>
<path fill-rule="evenodd" clip-rule="evenodd" d="M181.823 56.8515C181.904 56.8592 181.986 56.8592 182.067 56.8515C183.603 56.8515 185.611 53.7199 186.422 50.8559C186.47 50.6951 186.406 50.522 186.265 50.431C181.72 47.331 174.773 42.5156 174.253 41.9412C173.768 40.9689 173.403 39.9411 173.166 38.8805C172.803 37.3666 172.274 35.897 171.591 34.4979C171.529 34.4047 171.433 34.3397 171.323 34.3169C171.212 34.2987 171.098 34.3271 171.008 34.3956L158.02 44.6243C157.877 44.7333 157.831 44.9272 157.909 45.0885C157.91 45.0907 157.912 45.0937 157.914 45.0975C158.02 45.3254 159.457 48.4027 161.611 48.9754C162.974 49.3354 165.21 48.5981 166.853 48.056L166.881 48.047C167.068 47.9814 167.27 47.902 167.465 47.8252C167.927 47.6438 168.351 47.4771 168.456 47.5434C168.606 47.6378 169.819 48.5112 171.213 49.5341C177.396 54.0425 181.114 56.6784 181.823 56.8515ZM168.834 46.8274C168.734 46.7765 168.623 46.7522 168.511 46.7566C167.855 46.8351 167.211 46.9991 166.597 47.2444L166.58 47.2501C165.122 47.7302 162.922 48.4549 161.777 48.1571C160.304 47.7873 159.114 45.7494 158.729 45.0098L171.103 35.2296C171.622 36.4638 172.051 37.7339 172.386 39.03C172.914 40.8239 173.253 41.957 173.655 42.3976C174.363 43.1923 183.658 49.5498 185.572 50.8481C184.619 54.0819 182.744 56.2535 182.004 56.0568C181.37 55.8883 176.558 52.4012 173.211 49.975C172.65 49.5684 172.13 49.1916 171.678 48.8653C171.463 48.7091 171.262 48.563 171.074 48.4265C169.644 47.3862 168.98 46.9039 168.834 46.8274Z" fill="#231F20"/>
<path d="M170.638 37.5663C170.544 38.3982 170.701 39.2389 171.087 39.9819C171.725 41.1228 174.552 42.6413 174.552 42.6413L176.521 38.7072L172.662 35.9219L170.638 37.5663Z" fill="#231F20"/>
<path fill-rule="evenodd" clip-rule="evenodd" d="M174.371 42.9876C174.426 43.019 174.489 43.0352 174.552 43.0349C174.593 43.0324 174.634 43.0217 174.67 43.0034C174.773 42.9725 174.858 42.9015 174.907 42.8067L176.876 38.8726C176.957 38.7009 176.904 38.4956 176.75 38.3847L172.898 35.5994C172.755 35.4864 172.553 35.4864 172.41 35.5994L170.386 37.2675C170.311 37.3288 170.264 37.416 170.252 37.5114C170.148 38.4275 170.32 39.3537 170.748 40.1708C171.417 41.3747 174.064 42.8303 174.371 42.9876ZM171.433 39.7931C171.112 39.1727 170.967 38.4758 171.016 37.7789L172.678 36.4019L176.017 38.8175L174.387 42.1064C173.473 41.5792 171.843 40.58 171.433 39.7931Z" fill="#231F20"/>
<path d="M182.988 48.5977C182.988 48.5977 184.02 45.3481 182.201 45.1199C182.167 44.5383 181.832 44.0163 181.317 43.743C180.802 43.4696 180.182 43.4846 179.68 43.7823C179.68 43.7823 179.097 41.3668 177.191 41.8546C175.285 42.3424 173.773 46.8981 174.041 48.0469C174.308 49.1957 175.789 48.4954 176.537 47.4174C176.537 47.4174 175.569 49.2114 176.215 49.6835C177.16 50.3759 178.152 49.1484 178.956 48.2515C178.956 48.2515 177.766 50.3523 179.515 50.5411C180.862 50.6906 182.114 47.9761 182.114 47.9761L182.988 48.5977Z" fill="white"/>
<path fill-rule="evenodd" clip-rule="evenodd" d="M179.436 50.9426H179.585C180.791 50.9426 181.799 49.3532 182.177 48.5507L182.712 48.9205C182.817 48.9908 182.948 49.0082 183.067 48.9677C183.185 48.9301 183.277 48.8355 183.311 48.7159C183.406 48.4877 184.012 46.4971 183.311 45.4034C183.121 45.1021 182.827 44.8809 182.484 44.7818C182.342 44.1959 181.982 43.6864 181.476 43.3576C180.986 43.11 180.416 43.0758 179.9 43.2632C179.672 42.6243 179.247 42.0736 178.687 41.6896C178.199 41.3965 177.61 41.3222 177.065 41.485C174.891 42.0436 173.324 46.8118 173.615 48.1415C173.677 48.5786 174.009 48.9289 174.442 49.0149C174.84 49.0701 175.244 48.9837 175.584 48.771C175.456 49.2166 175.594 49.6962 175.939 50.0063C176.718 50.5807 177.474 50.2187 178.128 49.6443C178.133 50.3626 178.717 50.9426 179.436 50.9426ZM179.152 47.9369C179.085 47.8842 179.001 47.8564 178.916 47.8583C178.806 47.8585 178.7 47.904 178.624 47.9841L178.459 48.173C177.608 49.1172 176.955 49.7624 176.403 49.3611C176.222 49.2273 176.443 48.3776 176.844 47.5907C176.938 47.4069 176.876 47.1825 176.703 47.0714C176.525 46.9633 176.294 47.0115 176.175 47.1816C175.838 47.7532 175.257 48.1389 174.6 48.2281C174.544 48.2202 174.442 48.1966 174.387 47.9527C174.174 46.9534 175.584 42.6574 177.262 42.2325C177.601 42.1262 177.969 42.1661 178.278 42.3426C178.771 42.7252 179.121 43.2631 179.27 43.8691C179.301 43.982 179.378 44.0765 179.483 44.1287C179.588 44.1762 179.709 44.1762 179.814 44.1287C180.21 43.8995 180.689 43.8646 181.113 44.0343C181.479 44.3054 181.723 44.7098 181.791 45.1595C181.817 45.3345 181.954 45.4719 182.13 45.4978C182.35 45.5136 182.55 45.6297 182.673 45.8125C182.931 46.496 182.956 47.2457 182.744 47.9448L182.303 47.6379C182.207 47.5691 182.085 47.5487 181.972 47.5829C181.861 47.6144 181.77 47.6917 181.72 47.7953C181.35 48.5821 180.31 50.2423 179.522 50.1558C179.089 50.1086 178.979 49.9355 178.979 49.8804C178.79 49.5106 179.089 48.7552 179.262 48.4484C179.357 48.2741 179.31 48.0568 179.152 47.9369Z" fill="#231F20"/>
<path d="M174.568 38.8491C174.568 38.8491 173.489 36.9764 172.355 38.6209C171.221 40.2653 169.858 43.3418 171.748 43.6723C173.639 44.0028 175.056 40.4778 174.568 38.8491Z" fill="white"/>
<path fill-rule="evenodd" clip-rule="evenodd" d="M171.685 44.0735C171.787 44.0813 171.89 44.0813 171.992 44.0735C172.67 44.0417 173.301 43.7208 173.725 43.1922C174.763 41.96 175.209 40.3356 174.946 38.7467L174.907 38.6601C174.906 38.6585 174.904 38.6565 174.903 38.6544C174.825 38.5264 174.254 37.5973 173.402 37.5586C172.827 37.5805 172.306 37.9034 172.032 38.4084C171.22 39.5729 170 41.9097 170.551 43.2237C170.75 43.689 171.182 44.013 171.685 44.0735ZM172.678 38.8254C172.835 38.5972 173.087 38.3218 173.347 38.3218H173.363C173.717 38.3375 174.072 38.786 174.198 38.9906C174.368 40.3048 173.982 41.6303 173.134 42.6493C172.829 43.0688 172.33 43.3032 171.811 43.2709C171.577 43.2533 171.371 43.1081 171.276 42.8932C170.945 42.0986 171.725 40.2023 172.678 38.8254Z" fill="#231F20"/>
<path d="M169.015 56.1432C169.015 56.1432 167.771 50.2027 167.653 49.1405C167.456 47.3387 167.881 44.5218 169.464 44.0812C171.048 43.6406 174.671 43.2236 174.072 44.813C173.529 46.2607 170.354 46.5361 170.354 46.5361C170.354 46.5361 172.544 48.7392 172.213 50.9344" fill="white"/>
<path d="M169.015 56.5369C168.83 56.5378 168.67 56.4102 168.629 56.2301C168.582 55.9862 167.385 50.2502 167.266 49.1487C167.062 47.3075 167.455 44.1996 169.362 43.6409C170.354 43.3655 173.387 42.799 174.277 43.7668C174.551 44.0723 174.616 44.5123 174.442 44.8841C173.993 46.0958 172.181 46.5758 171.134 46.7646C171.795 47.5986 172.859 49.2431 172.599 50.9269C172.578 51.0675 172.483 51.1861 172.351 51.2381C172.218 51.2901 172.068 51.2676 171.957 51.1791C171.846 51.0906 171.79 50.9494 171.811 50.8089C172.111 48.834 170.086 46.7646 170.071 46.7489C169.963 46.6387 169.927 46.4776 169.976 46.3319C170.031 46.1895 170.162 46.0914 170.315 46.0801C171.102 46.0093 173.324 45.608 173.694 44.6087C173.78 44.3963 173.694 44.3333 173.694 44.3019C173.276 43.8376 171.094 43.9793 169.566 44.3963C168.283 44.7504 167.857 47.3154 168.046 49.0307C168.164 50.0614 169.393 55.9468 169.401 56.0019C169.424 56.1044 169.404 56.2118 169.347 56.2995C169.289 56.3871 169.197 56.4473 169.094 56.4661L169.015 56.5369Z" fill="#231F20"/>
<path d="M192.275 33.6168C192.275 33.6168 179.152 32.3186 173.796 35.4186C172.45 36.2215 171.161 37.1153 169.937 38.0938C167.03 40.3678 164.297 42.9485 162.17 44.3884C157.949 47.221 153.869 47.7953 151.088 43.2869C148.725 39.4393 150.104 37.6139 153.301 34.1912C154.877 32.4995 158.216 29.7063 161.091 26.6141C162.791 24.8951 164.224 22.9327 165.345 20.7916C167.771 15.693 167.085 7.87988 167.085 7.87988L192.275 33.6168Z" fill="white"/>
<path fill-rule="evenodd" clip-rule="evenodd" d="M155.011 46.8433C155.424 46.9361 155.847 46.981 156.271 46.977C158.075 46.977 160.123 46.2217 162.407 44.711C163.91 43.6379 165.356 42.4876 166.739 41.2647C167.834 40.3284 169.007 39.3527 170.197 38.4164C171.405 37.4489 172.679 36.5655 174.009 35.7727C178.915 32.9202 190.758 33.8887 192.123 34.0003C192.2 34.0066 192.244 34.0102 192.251 34.0102C192.417 34.023 192.574 33.9322 192.645 33.782C192.715 33.6347 192.687 33.4594 192.574 33.3414L167.369 7.58087C167.254 7.45704 167.073 7.42198 166.92 7.49432C166.77 7.56554 166.679 7.72199 166.692 7.88773C166.699 7.96641 167.353 15.6773 164.99 20.6342C163.891 22.7396 162.481 24.6679 160.808 26.3544C159.146 28.1012 157.374 29.785 155.798 31.2485C154.664 32.2949 153.687 33.2077 153.01 33.9315C149.781 37.3935 148.213 39.3842 150.757 43.5071C151.645 45.1646 153.188 46.3746 155.011 46.8433ZM165.707 20.9726C167.629 16.889 167.637 11.2396 167.542 8.87913L191.282 33.1683C188.021 32.9244 178.191 32.468 173.631 35.1196C172.257 35.9333 170.942 36.8402 169.693 37.8342C168.661 38.641 167.658 39.4829 166.68 40.3045C166.523 40.4363 166.367 40.5676 166.211 40.6982C164.852 41.9014 163.43 43.0308 161.95 44.0815C159.327 45.8361 157.051 46.5207 155.176 46.1115C153.565 45.6771 152.208 44.5943 151.427 43.1216C149.174 39.4472 150.434 37.8106 153.585 34.4666C154.225 33.7815 155.173 32.9006 156.261 31.8902L156.334 31.8228L156.363 31.7961C157.939 30.3314 159.715 28.6804 161.383 26.8895C163.11 25.1425 164.568 23.1483 165.707 20.9726Z" fill="#231F20"/>
<path d="M170.638 37.5663C167.731 39.8402 164.218 42.8537 162.17 44.3801C157.492 47.8736 154.53 48.2434 151.474 43.9238C148.323 39.4861 150.103 37.6292 153.301 34.1987C154.877 32.507 158.216 29.7138 161.091 26.6216C161.091 26.6216 161.272 29.8397 164.478 33.7659C166.052 35.6807 168.219 37.0178 170.638 37.5663Z" fill="#231F20"/>
<path fill-rule="evenodd" clip-rule="evenodd" d="M155.515 47.4173C155.754 47.4558 155.997 47.4742 156.24 47.4724C157.925 47.4724 159.894 46.5912 162.407 44.6949C163.441 43.9255 164.838 42.7807 166.335 41.5529C166.446 41.4624 166.557 41.3714 166.668 41.2801C166.837 41.1421 167.007 41.0034 167.177 40.8646C168.432 39.8401 169.703 38.8026 170.882 37.881C171.001 37.7808 171.055 37.6239 171.024 37.4719C170.982 37.3233 170.86 37.2107 170.709 37.1808C168.385 36.641 166.304 35.3526 164.786 33.5142C161.714 29.7453 161.485 26.598 161.485 26.598C161.476 26.4411 161.374 26.305 161.225 26.2518C161.079 26.1959 160.912 26.2366 160.808 26.3541C159.146 28.1009 157.374 29.7847 155.798 31.2481C155.706 31.3333 155.615 31.4174 155.525 31.5004C154.507 32.4386 153.629 33.2477 152.971 33.9705L152.96 33.9821C149.769 37.4057 147.839 39.4757 151.151 44.152C152.553 46.1348 153.94 47.1734 155.515 47.4173ZM156.334 31.8225C157.744 30.5164 159.319 29.0529 160.824 27.4793C161.409 29.8892 162.556 32.1269 164.171 34.0099C165.628 35.7785 167.573 37.0808 169.764 37.7552C168.598 38.6836 167.369 39.6907 166.172 40.6743C165.871 40.9204 165.574 41.1651 165.281 41.4056C164.003 42.4565 162.825 43.4251 161.934 44.0655C159.201 46.1033 157.264 46.8902 155.633 46.6384C154.286 46.4259 153.065 45.4896 151.797 43.6957C148.867 39.5445 150.426 37.8664 153.56 34.4934L153.585 34.4662C154.225 33.7811 155.173 32.9002 156.262 31.8899L156.334 31.8225Z" fill="#231F20"/>
<path d="M195.913 32.5074C192.976 35.1433 186.462 32.9481 180.121 27.5898C178.496 26.2192 176.97 24.7363 175.553 23.1521C174.16 21.5974 172.876 19.9491 171.709 18.2188C166.983 11.279 165.51 4.55954 168.472 1.90795C172.126 -1.3731 181.247 2.81279 188.832 11.2633C196.418 19.7137 199.584 29.2185 195.913 32.5074Z" fill="#7C5DFA"/>
<path fill-rule="evenodd" clip-rule="evenodd" d="M167.92 1.33333C168.991 0.423407 170.367 -0.048727 171.772 0.0114703C176.624 0.0114703 183.524 4.22097 189.4 10.7044C192.864 14.4187 195.559 18.7798 197.331 23.5374C198.804 27.865 198.466 31.2483 196.441 33.058C195.367 33.9868 193.978 34.4709 192.558 34.4113C189.037 34.4113 184.311 32.1295 179.585 28.1954C176.318 25.4096 173.441 22.1967 171.032 18.6434C165.967 11.1686 164.715 4.20523 167.92 1.33333ZM188.809 11.2709C182.98 4.77961 176.238 0.798292 171.772 0.798292C170.572 0.745926 169.396 1.14139 168.472 1.90771C165.51 4.5593 166.983 11.2788 171.709 18.2185C172.87 19.951 174.149 21.602 175.537 23.1598C176.954 24.744 178.48 26.2268 180.105 27.5974C184.65 31.4214 189.242 33.6324 192.574 33.6324C193.783 33.6893 194.969 33.2905 195.898 32.5151C199.584 29.2262 196.402 19.7214 188.809 11.2709Z" fill="#231F20"/>
<path d="M185.359 21.0432L180.121 27.5895C178.496 26.2189 176.97 24.736 175.553 23.1518C174.16 21.5971 172.876 19.9488 171.709 18.2185L179.286 13.5684L185.359 21.0432Z" fill="white"/>
<ellipse cx="182.308" cy="17.3335" rx="2.24386" ry="4.81741" transform="rotate(-39.4 182.308 17.3335)" fill="#231F20"/>
<path fill-rule="evenodd" clip-rule="evenodd" d="M180.255 18.9897C181.649 20.6892 183.319 21.6884 184.556 21.6884C184.928 21.6943 185.291 21.5751 185.588 21.3501C186.73 20.4059 186.17 17.9038 184.312 15.6457C183.562 14.6734 182.614 13.8715 181.531 13.2931C180.476 12.821 179.578 12.8131 178.987 13.2931C178.396 13.773 178.231 14.6621 178.522 15.7952C178.871 16.9689 179.461 18.057 180.255 18.9897ZM179.483 13.8989C179.649 13.7758 179.852 13.7146 180.058 13.7258C180.443 13.7499 180.819 13.8544 181.161 14.0327C182.152 14.549 183.025 15.2674 183.721 16.1414C185.375 18.1556 185.777 20.1778 185.099 20.7364C184.422 21.295 182.516 20.5082 180.862 18.494C180.138 17.6507 179.601 16.6639 179.286 15.5984C179.082 14.7959 179.152 14.1743 179.483 13.8989Z" fill="#231F20"/>
<path d="M178.916 48.6449C178.846 48.6454 178.778 48.6263 178.719 48.5899C178.628 48.5388 178.562 48.4531 178.535 48.3523C178.508 48.2515 178.523 48.1442 178.577 48.0548C179.067 47.2543 179.672 46.5304 180.373 45.9068C180.477 45.7969 180.635 45.7563 180.779 45.8024C180.923 45.8485 181.028 45.973 181.049 46.1228C181.07 46.2726 181.003 46.4211 180.877 46.5048C180.265 47.0802 179.735 47.7368 179.302 48.4561C179.221 48.5883 179.07 48.6618 178.916 48.6449Z" fill="#231F20"/>
<path d="M176.498 47.8108H176.435C176.332 47.79 176.243 47.7293 176.185 47.6423C176.127 47.5552 176.107 47.4488 176.128 47.3466C176.412 46.2236 177.077 45.2338 178.01 44.5455C178.184 44.4151 178.431 44.4504 178.561 44.6242C178.692 44.798 178.657 45.0446 178.483 45.175C177.711 45.7496 177.156 46.5674 176.907 47.4961C176.865 47.6864 176.693 47.8192 176.498 47.8108Z" fill="#231F20"/>
<path d="M182.074 48.3695C181.995 48.3701 181.918 48.3453 181.854 48.2987C181.768 48.2385 181.709 48.1464 181.692 48.043C181.674 47.9396 181.698 47.8333 181.759 47.7479L182.295 46.9611C182.425 46.7896 182.666 46.7484 182.846 46.8667C183.022 46.9946 183.063 47.2385 182.941 47.4175L182.397 48.2043C182.325 48.3107 182.203 48.373 182.074 48.3695Z" fill="#231F20"/>
<path d="M157.216 46.6777C157.131 46.6783 157.048 46.6506 156.98 46.5991C153.498 43.9553 151.34 40.7451 150.915 37.5663V37.4798C150.864 37.3083 150.935 37.1241 151.088 37.0313C151.176 36.9736 151.284 36.9545 151.387 36.9782C151.489 37.002 151.578 37.0667 151.632 37.1572C151.678 37.2531 151.705 37.3575 151.71 37.4641C152.112 40.4382 154.152 43.4596 157.476 45.9696C157.613 46.072 157.668 46.251 157.612 46.4125C157.556 46.574 157.403 46.6812 157.232 46.6777H157.216Z" fill="white"/>
<path d="M155.27 34.1202C155.161 34.1187 155.058 34.0699 154.987 33.9864C154.913 33.9139 154.871 33.8147 154.871 33.711C154.871 33.6074 154.913 33.5082 154.987 33.4357L159.225 29.5015C159.296 29.4255 159.396 29.3823 159.5 29.3823C159.605 29.3823 159.704 29.4255 159.776 29.5015C159.85 29.5741 159.892 29.6733 159.892 29.7769C159.892 29.8805 159.85 29.9798 159.776 30.0523L155.538 33.9864C155.471 34.0659 155.374 34.1143 155.27 34.1202Z" fill="white"/>
<path d="M155.853 35.0646C155.744 35.0618 155.639 35.0167 155.562 34.9387C155.411 34.7831 155.411 34.5357 155.562 34.3801L159.8 30.446C159.953 30.296 160.198 30.296 160.351 30.446C160.426 30.5198 160.467 30.6204 160.467 30.7253C160.467 30.8302 160.426 30.9307 160.351 31.0046L156.121 34.9387C156.05 35.0119 155.955 35.0567 155.853 35.0646Z" fill="white"/>
<path d="M156.523 36.1504C156.414 36.153 156.31 36.1068 156.239 36.0245C156.165 35.952 156.124 35.8527 156.124 35.7491C156.124 35.6455 156.165 35.5463 156.239 35.4737L160.477 31.5396C160.548 31.4636 160.648 31.4204 160.753 31.4204C160.857 31.4204 160.957 31.4636 161.028 31.5396C161.102 31.6121 161.144 31.7114 161.144 31.815C161.144 31.9186 161.102 32.0179 161.028 32.0904L156.791 36.0245C156.723 36.1018 156.626 36.1475 156.523 36.1504Z" fill="white"/>
<path d="M86.4214 96.8379L84.4443 140.444C84.4443 140.444 111.422 140.766 126.938 134.291C128.21 130.134 129.746 126.063 131.538 122.103C133.815 117.508 143.589 110.733 140.518 93.1399C140.518 93.1399 163.549 107.696 170.039 101.008C176.529 94.3201 179.774 63.0833 179.774 63.0833L166.29 58.7557L160.162 78.0171C160.162 78.0171 121.299 59.2357 112.241 56.8595C108.877 55.9783 98.4252 61.5332 86.445 69.2205" fill="#7C5DFA"/>
<path d="M111.406 69.9365C111.406 69.9365 117.652 89.3238 118.723 97.5304C119.794 105.737 119.952 119.302 119.952 119.302C119.952 119.302 129.837 89.0563 128.616 70.3771L111.406 69.9365Z" fill="#231F20"/>
<path fill-rule="evenodd" clip-rule="evenodd" d="M119.905 119.656H119.952C120.107 119.659 120.245 119.56 120.291 119.412C120.385 119.136 130.176 88.8832 128.955 70.3535C128.947 70.1729 128.797 70.0308 128.616 70.031L111.414 69.5903C111.302 69.5905 111.196 69.6436 111.13 69.7335C111.063 69.8234 111.043 69.9395 111.075 70.0467C111.076 70.0479 111.076 70.0499 111.077 70.0525C111.215 70.4815 117.328 89.547 118.377 97.5854C119.432 105.674 119.605 119.184 119.605 119.317C119.608 119.489 119.735 119.632 119.905 119.656ZM119.07 97.4832C118.101 90.0477 112.84 73.3041 111.886 70.2985L128.285 70.7312C129.199 86.3339 122.41 110.072 120.259 117.154C120.165 112.991 119.858 103.668 119.07 97.4832Z" fill="#231F20"/>
<path d="M79.9394 163.592H154.381L126.962 134.291L84.4684 140.443C84.4684 140.443 79.3801 151.947 79.8606 160.02C79.8921 160.972 79.9158 162.191 79.9394 163.592Z" fill="#231F20"/>
<path fill-rule="evenodd" clip-rule="evenodd" d="M79.939 163.985H154.38H154.388C154.545 163.986 154.688 163.894 154.751 163.75C154.815 163.607 154.786 163.439 154.68 163.324L127.261 134.023C127.172 133.928 127.044 133.882 126.915 133.897L84.3814 140.05C84.2504 140.073 84.1388 140.158 84.0821 140.278C83.8694 140.758 78.9623 151.962 79.4428 160.043C79.4979 161.011 79.5452 162.278 79.5452 163.599C79.5451 163.703 79.5869 163.802 79.661 163.875C79.7351 163.947 79.8353 163.987 79.939 163.985ZM153.467 163.198H80.3407C80.3407 162.108 80.2942 161.07 80.2561 160.219C80.2527 160.143 80.2494 160.069 80.2462 159.996C79.8051 152.686 84.0663 142.371 84.7358 140.797L126.812 134.707L153.467 163.198Z" fill="#231F20"/>
<path d="M126.474 59.5111L128.608 70.3771C128.608 70.3771 128.663 76.6717 121.685 76.0659C117.509 75.6743 113.733 73.4224 111.406 69.9365L108.578 50.9584C108.821 47.5028 108.54 44.0303 107.743 40.6589C115.769 38.9987 120.952 31.7363 120.952 31.7363C120.952 31.7363 124.504 35.3557 125.954 36.4573C127.12 37.2553 128.179 38.1993 129.104 39.2662C130.625 41.1467 131.074 43.7747 131.467 46.0958C131.963 48.8508 132.208 51.6449 132.2 54.444C132.074 59.755 126.474 59.5111 126.474 59.5111Z" fill="white"/>
<path fill-rule="evenodd" clip-rule="evenodd" d="M121.653 76.467H122.591C124.188 76.548 125.756 76.0192 126.978 74.9878C128.2 73.7563 128.89 72.0952 128.9 70.3613L126.844 59.9201C128.34 59.871 129.776 59.3162 130.916 58.3465C131.961 57.3339 132.533 55.9293 132.491 54.4753C132.5 51.655 132.252 48.8397 131.751 46.0642C131.373 43.7903 130.892 41.0521 129.317 39.0694C128.392 37.9859 127.333 37.0237 126.166 36.2053C125.105 35.4099 122.868 33.185 121.795 32.1175C121.435 31.7595 121.206 31.5316 121.196 31.5316C121.125 31.4522 121.019 31.4113 120.913 31.4214C120.806 31.4302 120.708 31.4848 120.645 31.5709C120.598 31.6418 115.454 38.7782 107.664 40.3519C107.57 40.372 107.488 40.4286 107.436 40.5092C107.382 40.5871 107.364 40.685 107.389 40.7768C108.125 43.8294 108.406 46.9738 108.224 50.1085C108.192 50.425 108.192 50.7439 108.224 51.0605C108.232 51.1549 111.051 70.0387 111.051 70.0387C111.06 70.0854 111.076 70.1306 111.099 70.1724C113.476 73.7643 117.36 76.0807 121.653 76.467ZM121.716 75.7116C117.684 75.3143 114.036 73.1535 111.752 69.8105C108.956 51.092 108.988 50.8953 108.988 50.8953C108.967 50.6334 108.967 50.3703 108.988 50.1085C109.17 47.031 108.904 43.9435 108.2 40.942C115.171 39.3683 119.889 33.7426 121.015 32.287C121.874 33.1839 124.512 35.8119 125.741 36.7325C126.868 37.517 127.892 38.4395 128.789 39.4785C130.241 41.2491 130.662 43.7228 131.039 45.9306C131.05 45.999 131.062 46.0671 131.074 46.135C131.568 48.8689 131.813 51.6421 131.806 54.4202C131.849 55.6709 131.373 56.8837 130.491 57.7721C129.362 58.6894 127.944 59.1772 126.489 59.149C126.377 59.1401 126.268 59.1873 126.198 59.2749C126.13 59.3617 126.101 59.473 126.119 59.5818L128.246 70.377C128.209 71.8886 127.601 73.3304 126.545 74.4134C125.418 75.452 123.796 75.8847 121.716 75.7116Z" fill="#231F20"/>
<path d="M127.427 64.8612C127.427 64.8612 123.048 65.892 119.645 63.4922C116.242 61.0924 116.101 58.0474 116.101 58.0474C116.101 58.0474 121.488 60.337 126.474 59.5109L127.427 64.8612Z" fill="#231F20"/>
<path fill-rule="evenodd" clip-rule="evenodd" d="M119.448 63.7757C121.128 64.8997 123.113 65.4794 125.135 65.4359C125.942 65.4471 126.748 65.368 127.537 65.1998C127.72 65.1604 127.839 64.9827 127.805 64.7986L126.844 59.4482C126.812 59.2624 126.637 59.1365 126.45 59.1649C122.024 59.9018 117.186 58.0716 116.382 57.7672C116.31 57.7401 116.27 57.725 116.266 57.725C116.156 57.6777 116.03 57.6927 115.935 57.7644C115.833 57.8284 115.776 57.9436 115.785 58.0634C115.785 58.2365 115.943 61.3051 119.448 63.7757ZM119.873 63.2092C118.239 62.13 117.064 60.4846 116.573 58.5905C118.038 59.1413 122.165 60.4632 126.222 59.9045L127.057 64.5861C126.009 64.7828 122.591 65.129 119.873 63.2092Z" fill="#231F20"/>
<path d="M120.661 40.9814C120.661 40.9814 125.159 45.545 124.497 46.6072C123.835 47.6694 121.394 47.5199 121.394 47.5199" fill="white"/>
<path d="M121.772 47.874H121.37C121.278 47.868 121.192 47.8256 121.132 47.7562C121.071 47.6868 121.041 47.5961 121.047 47.5042C121.06 47.3117 121.224 47.1648 121.417 47.1738C122.039 47.1738 123.78 47.1738 124.206 46.4341C124.473 45.9935 122.709 43.5622 120.417 41.2333C120.282 41.0964 120.284 40.8762 120.421 40.7415C120.558 40.6068 120.778 40.6085 120.913 40.7454C122.323 42.1774 125.521 45.6316 124.796 46.804C124.198 47.756 122.551 47.874 121.772 47.874Z" fill="#231F20"/>
<ellipse cx="126.624" cy="42.3438" rx="0.614338" ry="1.14882" transform="rotate(-13.01 126.624 42.3438)" fill="#231F20"/>
<ellipse cx="116.589" cy="43.3624" rx="0.614338" ry="1.14882" transform="rotate(-13.01 116.589 43.3624)" fill="#231F20"/>
<path d="M111.154 44.6949C110.059 42.9246 107.499 42.6806 105.711 43.3966C104.498 43.8303 103.671 44.9584 103.624 46.2449C103.61 47.0173 103.749 47.7847 104.034 48.5031C104.509 49.85 105.224 51.1001 106.144 52.1933C106.573 52.7652 107.139 53.2198 107.791 53.5152C108.63 53.8112 109.565 53.5683 110.154 52.9015" fill="white"/>
<path d="M108.531 54.0188C108.235 54.0186 107.941 53.9625 107.665 53.8536C106.958 53.5333 106.341 53.0442 105.869 52.4294C104.924 51.302 104.187 50.015 103.695 48.6291C103.394 47.8626 103.247 47.0446 103.262 46.2214C103.324 44.8005 104.238 43.5575 105.577 43.0741C107.547 42.2873 110.303 42.602 111.461 44.514C111.544 44.6815 111.485 44.8841 111.326 44.9819C111.167 45.0797 110.959 45.0406 110.847 44.8917C109.862 43.318 107.539 43.0584 105.845 43.7351C104.764 44.1178 104.023 45.1164 103.971 46.2608C103.96 46.9872 104.091 47.7088 104.357 48.3852C104.819 49.6914 105.513 50.904 106.404 51.9652C106.797 52.4877 107.314 52.9041 107.909 53.1769C108.621 53.427 109.414 53.2181 109.91 52.6498C109.994 52.5376 110.137 52.4847 110.274 52.5141C110.412 52.5435 110.52 52.6498 110.552 52.7869C110.583 52.9239 110.532 53.0668 110.422 53.1533C109.932 53.6822 109.252 53.9938 108.531 54.0188Z" fill="#231F20"/>
<path d="M125.072 48.936L119.802 49.4475C119.802 49.4475 120.897 57.5832 123.268 57.3629C125.639 57.1426 125.647 51.265 125.072 48.936Z" fill="white"/>
<path fill-rule="evenodd" clip-rule="evenodd" d="M119.456 49.4949C119.637 50.8876 120.684 57.7172 123.165 57.7172L123.299 57.7093C123.876 57.6422 124.391 57.3183 124.701 56.8281C126.009 54.9948 125.859 50.6594 125.41 48.8497C125.368 48.6836 125.211 48.5732 125.04 48.5901L119.763 49.1015C119.668 49.1082 119.581 49.1573 119.526 49.2353C119.464 49.3063 119.438 49.4021 119.456 49.4949ZM123.165 57.0169C121.771 57.0169 120.637 52.7366 120.196 49.7624L124.804 49.3454C125.213 51.3282 125.166 54.9712 124.134 56.4268C123.938 56.7476 123.609 56.964 123.236 57.0169H123.165Z" fill="#231F20"/>
<path d="M138.257 112.023C138.128 112.023 138.01 111.953 137.947 111.84C137.885 111.727 137.889 111.589 137.958 111.48C138.013 111.378 143.802 101.653 138.265 81.4002C138.219 81.2098 138.33 81.0166 138.517 80.9596C138.609 80.9332 138.708 80.945 138.791 80.9925C138.874 81.0399 138.934 81.1188 138.958 81.2114C144.59 101.795 138.816 111.457 138.564 111.897C138.49 111.989 138.374 112.036 138.257 112.023Z" fill="#231F20"/>
<path d="M31.1362 83.8789L116.172 145.164L201.207 83.8789V184.419H31.1362V83.8789Z" fill="white"/>
<path fill-rule="evenodd" clip-rule="evenodd" d="M30.7422 184.419C30.7422 184.636 30.9186 184.812 31.1361 184.812H201.207C201.422 184.808 201.596 184.634 201.6 184.419V83.8786C201.6 83.7304 201.514 83.5959 201.38 83.5324C201.255 83.454 201.096 83.454 200.97 83.5324L116.171 144.645L31.3645 83.5324C31.2392 83.454 31.0802 83.454 30.9549 83.5324C30.8226 83.5966 30.7397 83.7317 30.7422 83.8786V184.419ZM200.852 184.025H31.5063V84.6497L115.935 145.479C116.073 145.58 116.261 145.58 116.4 145.479L200.852 84.6497V184.025Z" fill="#231F20"/>
<path d="M31.136 184.812C30.9917 184.813 30.8587 184.734 30.7894 184.608C30.6877 184.418 30.7537 184.182 30.9391 184.073L108.744 139.609C108.933 139.503 109.173 139.57 109.279 139.759C109.333 139.848 109.348 139.956 109.322 140.056C109.295 140.157 109.229 140.243 109.138 140.294L31.325 184.757C31.2676 184.791 31.2026 184.81 31.136 184.812Z" fill="#231F20"/>
<path d="M201.207 184.812C201.137 184.81 201.07 184.791 201.01 184.757L123.205 140.294C123.016 140.187 122.949 139.948 123.055 139.759C123.165 139.574 123.401 139.508 123.591 139.609L201.396 184.072C201.585 184.179 201.651 184.418 201.545 184.608C201.479 184.733 201.349 184.811 201.207 184.812Z" fill="#231F20"/>
<path d="M71.6768 138.303C71.6768 138.303 75.1189 147.257 75.9301 147.745C76.7414 148.233 86.3272 152.151 85.6419 153.985C84.9567 155.818 80.6403 153.583 80.6403 153.583C80.6403 153.583 86.8549 160.767 85.2166 162.034C83.5783 163.301 78.0647 165.873 75.8514 164.827C73.6381 163.781 62.603 150.121 60.2637 144.189" fill="white"/>
<path d="M77.1903 165.488C76.6767 165.503 76.166 165.407 75.6937 165.205C73.3308 164.079 62.2248 150.255 59.9012 144.354C59.8506 144.222 59.8743 144.073 59.9635 143.963C60.0528 143.853 60.1939 143.799 60.3337 143.821C60.4736 143.843 60.591 143.938 60.6416 144.071C63.0046 150.121 74.1105 163.584 76.0245 164.528C77.9385 165.472 83.3182 163.08 84.9881 161.782C85.0606 161.715 85.1032 161.621 85.1062 161.522C85.2559 159.949 81.7193 155.487 80.3803 153.898C80.2566 153.755 80.2521 153.545 80.3696 153.396C80.487 153.248 80.6932 153.205 80.8607 153.292C81.6484 153.701 83.9011 154.677 84.9093 154.291C85.0963 154.228 85.2443 154.084 85.311 153.898C85.5 153.387 84.2555 152.104 77.2375 148.854C76.3869 148.461 75.9379 148.249 75.7567 148.131C74.9061 147.588 72.165 140.601 71.3459 138.476C71.3075 138.378 71.3101 138.269 71.353 138.173C71.396 138.077 71.4757 138.002 71.5743 137.965C71.7765 137.89 72.0012 137.992 72.0784 138.193C73.7167 142.45 75.7016 147.084 76.1899 147.478C76.3238 147.564 76.8988 147.832 77.5683 148.138C83.2237 150.751 86.6106 152.678 86.0514 154.173C85.9047 154.571 85.5909 154.884 85.1928 155.031C84.1308 155.248 83.0273 155.121 82.0422 154.669C83.5624 156.565 86.075 159.972 85.9175 161.593C85.8917 161.901 85.7409 162.186 85.5 162.38C84.2004 163.363 80.0101 165.488 77.1903 165.488Z" fill="#231F20"/>
<path d="M86.4453 69.252C66.1868 82.2502 41.5489 101.378 39.4695 105.847C36.1456 112.928 61.004 148.54 61.004 148.54L74.465 140.011L62.1619 113.314L86.4216 96.8301" fill="#7C5DFA"/>
<path d="M70.8888 107.806C70.7703 107.809 70.6579 107.753 70.5895 107.656C70.479 107.492 70.5171 107.271 70.6761 107.153L97.9133 88.1039C97.9909 88.0466 98.0886 88.0235 98.1838 88.0398C98.2789 88.0561 98.3633 88.1105 98.4174 88.1904C98.4718 88.2697 98.4924 88.3673 98.4746 88.4618C98.4569 88.5562 98.4023 88.6398 98.3228 88.694L71.0936 107.743C71.0342 107.786 70.9622 107.808 70.8888 107.806Z" fill="#231F20"/>
<path d="M189.234 161.79L222.245 141.608L194.275 153.245L189.234 161.79Z" fill="#231F20"/>
<path fill-rule="evenodd" clip-rule="evenodd" d="M188.958 162.065C189.031 162.14 189.13 162.183 189.234 162.183C189.308 162.172 189.379 162.142 189.439 162.097L222.473 141.946C222.65 141.84 222.715 141.616 222.621 141.432C222.528 141.248 222.309 141.167 222.119 141.246L194.117 152.883C194.04 152.916 193.976 152.974 193.936 153.048L188.895 161.585C188.804 161.741 188.83 161.939 188.958 162.065ZM190.376 160.61L194.543 153.528L217.7 143.906L190.376 160.61Z" fill="#231F20"/>
<path d="M194.275 153.245L205.066 158.761L222.245 141.608L194.275 153.245Z" fill="white"/>
<path fill-rule="evenodd" clip-rule="evenodd" d="M204.901 159.075C204.951 159.103 205.009 159.116 205.066 159.115C205.164 159.12 205.259 159.083 205.326 159.012L222.505 141.86C222.629 141.742 222.649 141.552 222.552 141.411C222.457 141.271 222.277 141.215 222.119 141.277L194.134 152.914C194.006 152.973 193.921 153.097 193.913 153.237C193.906 153.377 193.983 153.507 194.11 153.567L204.901 159.075ZM204.995 158.32L195.126 153.284L220.701 142.639L204.995 158.32Z" fill="#231F20"/>
<path d="M222.245 141.608L186.706 150.09L178.625 145.471L222.245 141.608Z" fill="white"/>
<path fill-rule="evenodd" clip-rule="evenodd" d="M186.501 150.396C186.554 150.428 186.613 150.444 186.674 150.444L186.761 150.436L222.3 141.962C222.482 141.915 222.598 141.738 222.568 141.553C222.536 141.368 222.369 141.239 222.182 141.254L178.562 145.117C178.407 145.134 178.281 145.247 178.247 145.398C178.213 145.549 178.279 145.705 178.412 145.786L186.501 150.396ZM186.73 149.696L179.767 145.723L217.393 142.426L186.73 149.696Z" fill="#231F20"/>
<path d="M186.706 150.09L189.234 161.79L194.275 153.245L222.245 141.608L186.706 150.09Z" fill="white"/>
<path fill-rule="evenodd" clip-rule="evenodd" d="M189.179 162.152H189.234C189.373 162.163 189.505 162.092 189.573 161.971L194.551 153.536L222.386 141.946C222.574 141.885 222.676 141.685 222.615 141.498C222.554 141.311 222.353 141.209 222.166 141.27L186.627 149.744C186.535 149.764 186.455 149.821 186.405 149.9C186.354 149.98 186.338 150.077 186.359 150.168L188.88 161.876C188.913 162.021 189.032 162.13 189.179 162.152ZM189.392 160.806L187.131 150.349L217.968 142.993L194.133 152.907C194.062 152.939 194.002 152.991 193.96 153.056L189.392 160.806Z" fill="#231F20"/>
<path d="M181.949 163.418C181.776 163.415 181.625 163.298 181.578 163.132C181.531 162.966 181.598 162.788 181.744 162.695L183.059 161.853C183.242 161.733 183.487 161.784 183.607 161.967C183.726 162.149 183.675 162.394 183.492 162.514L182.161 163.363C182.096 163.4 182.023 163.419 181.949 163.418Z" fill="#D1D3D4"/>
<path fill-rule="evenodd" clip-rule="evenodd" d="M22.7571 139.777C22.8199 139.924 22.9663 140.016 23.1255 140.011C23.2466 140.013 23.3623 139.961 23.4406 139.869C24.1495 139.114 24.882 138.382 25.6697 137.689C25.7442 137.616 25.7862 137.515 25.7862 137.41C25.7862 137.305 25.7442 137.205 25.6697 137.131C25.5971 137.057 25.4977 137.015 25.394 137.015C25.2903 137.015 25.1909 137.057 25.1183 137.131C24.3307 137.839 23.5666 138.563 22.842 139.35C22.728 139.461 22.6943 139.631 22.7571 139.777ZM19.1873 144.889C19.0832 144.892 18.9818 144.855 18.9037 144.787C18.8182 144.728 18.76 144.637 18.7422 144.535C18.7244 144.433 18.7485 144.328 18.8092 144.244C19.4078 143.378 20.0537 142.521 20.7153 141.702C20.8529 141.536 21.0989 141.511 21.2667 141.647C21.4356 141.782 21.4637 142.028 21.3297 142.198C20.6759 142.985 20.0458 143.842 19.4551 144.692C19.3933 144.799 19.2859 144.872 19.1636 144.889H19.1873ZM15.7531 150.294C15.8264 150.322 15.9065 150.324 15.9815 150.302L15.9579 150.294C16.0871 150.292 16.2073 150.228 16.2808 150.121C16.7377 149.193 17.2339 148.272 17.7695 147.383C17.8778 147.194 17.8148 146.953 17.6277 146.84C17.5383 146.786 17.4308 146.771 17.3299 146.798C17.229 146.825 17.1432 146.891 17.0921 146.982C16.5486 147.895 16.0366 148.831 15.5719 149.767C15.5258 149.861 15.5189 149.969 15.5529 150.068C15.5869 150.167 15.6589 150.249 15.7531 150.294ZM13.6185 156.125C13.5795 156.132 13.5394 156.132 13.5004 156.125C13.3998 156.094 13.3156 156.024 13.2668 155.931C13.218 155.838 13.2085 155.729 13.2405 155.629C13.5476 154.638 13.91 153.631 14.3117 152.639C14.4068 152.46 14.6224 152.383 14.8099 152.46C14.9974 152.537 15.0954 152.744 15.0363 152.938C14.6504 153.906 14.2959 154.889 13.9887 155.865C13.9365 156.024 13.7859 156.13 13.6185 156.125ZM12.1929 162.254H12.248C12.4508 162.251 12.6178 162.094 12.634 161.892C12.7679 160.877 12.9569 159.846 13.1853 158.831C13.2088 158.729 13.1904 158.622 13.1342 158.533C13.078 158.444 12.9886 158.382 12.886 158.359C12.6735 158.315 12.4642 158.447 12.4134 158.658C12.1771 159.721 11.996 160.775 11.8542 161.806C11.826 162.022 11.9766 162.222 12.1929 162.254ZM176.514 166.637C176.337 166.635 176.183 166.516 176.137 166.345C176.091 166.175 176.165 165.995 176.317 165.905C177.333 165.323 178.246 164.796 179.034 164.331C179.124 164.276 179.232 164.26 179.334 164.285C179.436 164.31 179.524 164.375 179.578 164.465C179.687 164.652 179.628 164.893 179.444 165.008C178.656 165.48 177.734 166.015 176.711 166.582C176.657 166.612 176.598 166.631 176.537 166.637H176.514ZM11.5785 168.155C11.591 168.363 11.7637 168.525 11.9723 168.525H11.996C12.1005 168.519 12.1983 168.472 12.2677 168.393C12.3372 168.315 12.3726 168.212 12.3662 168.108C12.3189 167.51 12.3189 166.896 12.3189 166.29V165.008C12.3232 164.904 12.2857 164.802 12.2148 164.725C12.1439 164.648 12.0453 164.603 11.9408 164.599C11.8358 164.592 11.7327 164.629 11.6554 164.7C11.578 164.772 11.5332 164.871 11.5312 164.976V166.29C11.5312 166.602 11.5431 166.916 11.555 167.229C11.5668 167.54 11.5785 167.849 11.5785 168.155ZM171 169.682C170.855 169.684 170.721 169.605 170.653 169.477C170.553 169.285 170.623 169.049 170.811 168.942C171.699 168.47 172.542 168.01 173.339 167.576L173.576 167.447C173.699 167.36 173.862 167.351 173.994 167.424C174.127 167.497 174.205 167.639 174.197 167.79C174.188 167.941 174.094 168.074 173.954 168.132C173.087 168.612 172.166 169.115 171.181 169.642C171.132 169.667 171.078 169.681 171.024 169.682H171ZM165.053 172.365C165.118 172.501 165.257 172.587 165.408 172.585C165.468 172.584 165.528 172.568 165.581 172.538C166.558 172.05 167.495 171.57 168.393 171.106C168.586 171.006 168.662 170.768 168.562 170.575C168.462 170.381 168.224 170.306 168.031 170.406C167.133 170.878 166.195 171.35 165.226 171.838C165.033 171.936 164.956 172.171 165.053 172.365ZM13.0278 174.686C12.8505 174.685 12.6958 174.566 12.6497 174.395C12.3613 173.372 12.1299 172.335 11.9566 171.287C11.9218 171.07 12.0699 170.865 12.2874 170.83C12.5049 170.796 12.7094 170.944 12.7442 171.161C12.9016 172.19 13.1172 173.209 13.3901 174.214C13.4194 174.314 13.4076 174.422 13.3574 174.513C13.3071 174.605 13.2226 174.672 13.1223 174.702L13.0278 174.686ZM159.414 175.119C159.477 175.256 159.616 175.343 159.768 175.339C159.825 175.34 159.881 175.329 159.933 175.307L162.777 173.938C162.973 173.843 163.054 173.607 162.958 173.411C162.862 173.216 162.626 173.135 162.43 173.23C161.517 173.679 160.571 174.135 159.595 174.591C159.501 174.637 159.429 174.719 159.395 174.817C159.361 174.916 159.367 175.025 159.414 175.119ZM154.042 177.967C153.888 177.965 153.748 177.877 153.679 177.739C153.635 177.643 153.632 177.533 153.671 177.435C153.709 177.337 153.786 177.259 153.884 177.219C154.095 177.124 154.305 177.03 154.514 176.936L154.515 176.935C155.272 176.595 156.015 176.26 156.743 175.921C156.941 175.83 157.176 175.916 157.267 176.114C157.359 176.312 157.272 176.546 157.074 176.637C156.137 177.07 155.184 177.503 154.199 177.935C154.15 177.958 154.096 177.969 154.042 177.967ZM15.4065 180.516C15.2617 180.518 15.1279 180.439 15.0599 180.312C14.5453 179.382 14.0851 178.423 13.6816 177.44C13.6281 177.309 13.6485 177.16 13.7351 177.048C13.8217 176.937 13.9613 176.88 14.1013 176.899C14.2414 176.918 14.3606 177.01 14.4141 177.141C14.8012 178.099 15.2484 179.032 15.7531 179.934C15.8535 180.126 15.7838 180.362 15.5956 180.469C15.5372 180.499 15.4724 180.516 15.4065 180.516ZM142.039 182.678C142.132 182.787 142.275 182.839 142.416 182.814V182.822C142.467 182.821 142.517 182.813 142.566 182.798L145.496 181.602C145.696 181.515 145.791 181.285 145.708 181.083C145.625 180.884 145.397 180.789 145.196 180.87L142.274 182.027C142.133 182.052 142.017 182.151 141.969 182.285C141.92 182.419 141.947 182.569 142.039 182.678ZM18.7462 185.489C18.8229 185.573 18.9314 185.622 19.0455 185.623V185.631C19.1537 185.635 19.2591 185.596 19.3369 185.52C19.488 185.365 19.488 185.117 19.3369 184.962C18.645 184.194 17.9981 183.388 17.3993 182.546C17.3234 182.418 17.1818 182.344 17.0333 182.354C16.8848 182.364 16.7548 182.457 16.6972 182.595C16.6397 182.732 16.6645 182.89 16.7613 183.003C17.3758 183.868 18.0385 184.698 18.7462 185.489ZM130.585 187.118C130.368 187.152 130.163 187.004 130.129 186.787C130.094 186.57 130.242 186.366 130.459 186.331C131.46 185.992 132.452 185.654 133.429 185.308C133.635 185.24 133.859 185.348 133.933 185.552C133.968 185.649 133.963 185.756 133.919 185.849C133.874 185.942 133.794 186.014 133.697 186.048C132.712 186.394 131.72 186.74 130.711 187.078L130.585 187.118ZM23.6848 189.848C23.5995 189.848 23.5164 189.821 23.4485 189.769C22.5899 189.132 21.7629 188.455 20.991 187.755C20.9164 187.681 20.8745 187.581 20.8745 187.476C20.8745 187.371 20.9164 187.27 20.991 187.196C21.0636 187.122 21.1629 187.081 21.2667 187.081C21.3704 187.081 21.4698 187.122 21.5424 187.196C22.3098 187.892 23.1116 188.548 23.9447 189.163C24.1187 189.294 24.154 189.54 24.0235 189.714C23.9385 189.81 23.8126 189.86 23.6848 189.848ZM118.196 190.58C118.241 190.745 118.391 190.86 118.562 190.863H118.558C118.601 190.868 118.644 190.862 118.684 190.847C119.7 190.564 120.708 190.265 121.709 189.966C121.81 189.939 121.896 189.871 121.947 189.779C121.997 189.687 122.008 189.578 121.976 189.478C121.912 189.273 121.694 189.157 121.488 189.218L118.471 190.092C118.262 190.153 118.14 190.369 118.196 190.58ZM28.8203 193.105C28.8763 193.135 28.9383 193.151 29.0015 193.153V193.168C29.219 193.218 29.4358 193.083 29.4859 192.865C29.5359 192.648 29.4001 192.431 29.1826 192.381C28.2453 191.902 27.3316 191.39 26.4731 190.863C26.3849 190.805 26.277 190.786 26.1744 190.81C26.0718 190.834 25.9833 190.898 25.9296 190.989C25.8741 191.077 25.8561 191.185 25.8798 191.286C25.9034 191.388 25.9667 191.477 26.0556 191.532C26.9378 192.09 27.8672 192.618 28.8203 193.105ZM106.341 193.994C106.201 194.01 106.062 193.949 105.979 193.835C105.895 193.721 105.878 193.571 105.935 193.442C105.992 193.312 106.114 193.223 106.255 193.208C107.279 192.972 108.295 192.736 109.311 192.484C109.522 192.435 109.733 192.565 109.783 192.775C109.809 192.877 109.793 192.986 109.738 193.076C109.684 193.166 109.595 193.231 109.492 193.255C108.476 193.499 107.46 193.743 106.428 193.971L106.341 193.994ZM34.8065 195.615C34.7648 195.623 34.7221 195.623 34.6804 195.615C33.6722 195.261 32.6719 194.876 31.7189 194.474C31.6225 194.433 31.5468 194.355 31.5083 194.257C31.4699 194.16 31.4719 194.051 31.5141 193.955C31.6005 193.759 31.8281 193.668 32.026 193.751C32.9634 194.144 33.9479 194.537 34.9404 194.876C35.1579 194.913 35.3042 195.119 35.2673 195.336C35.2303 195.553 35.024 195.699 34.8065 195.663V195.615ZM93.6443 196.15C93.6755 196.338 93.8395 196.476 94.0303 196.473H94.1012L97.2046 195.914C97.4172 195.874 97.5579 195.671 97.5196 195.458C97.5024 195.355 97.4441 195.263 97.358 195.204C97.2719 195.144 97.1653 195.123 97.0628 195.143L93.9673 195.694C93.7539 195.734 93.6108 195.936 93.6443 196.15ZM40.8635 197.378H40.769C39.7214 197.134 38.6896 196.866 37.705 196.591C37.4991 196.527 37.3809 196.311 37.4372 196.103C37.4981 195.895 37.7168 195.775 37.9256 195.836C38.9023 196.111 39.9184 196.379 40.9502 196.622C41.0525 196.645 41.1412 196.708 41.1962 196.797C41.2511 196.886 41.2675 196.993 41.2416 197.095C41.1882 197.265 41.0264 197.378 40.8478 197.37L40.8635 197.378ZM87.4219 197.118C87.4527 197.312 87.6193 197.455 87.8157 197.456L87.8393 197.449L90.99 196.984C91.0936 196.967 91.186 196.909 91.2466 196.823C91.3073 196.738 91.3311 196.631 91.3129 196.528C91.2975 196.425 91.2411 196.333 91.1566 196.272C91.072 196.211 90.9665 196.187 90.8639 196.205L87.7606 196.67C87.6557 196.683 87.5607 196.738 87.4969 196.823C87.4332 196.907 87.4062 197.014 87.4219 197.118ZM81.5696 198.243C81.4289 198.252 81.2944 198.185 81.2167 198.067C81.139 197.95 81.13 197.8 81.1931 197.674C81.2561 197.548 81.3816 197.465 81.5223 197.456C82.5725 197.341 83.6227 197.215 84.673 197.079C84.8905 197.051 85.0897 197.204 85.118 197.421C85.1462 197.638 84.9929 197.837 84.7753 197.866L81.6247 198.235L81.5696 198.243ZM46.9836 198.527H47.023C47.216 198.517 47.3748 198.372 47.4011 198.18C47.4169 198.077 47.3909 197.972 47.3288 197.888C47.2668 197.803 47.1737 197.747 47.0703 197.732C46.0227 197.582 44.983 197.409 43.9827 197.22C43.842 197.194 43.6977 197.244 43.6042 197.352C43.5107 197.461 43.4822 197.611 43.5294 197.746C43.5766 197.881 43.6923 197.981 43.833 198.007C44.8806 198.196 45.9282 198.369 46.9836 198.527ZM75.2999 198.849C75.0823 198.849 74.906 198.673 74.906 198.456C74.906 198.238 75.0823 198.062 75.2999 198.062C76.3474 197.976 77.3871 197.881 78.4505 197.779C78.6657 197.765 78.8551 197.92 78.8837 198.133C78.8947 198.238 78.8634 198.342 78.7968 198.423C78.7302 198.505 78.6339 198.556 78.5292 198.566C77.479 198.666 76.4288 198.76 75.3786 198.849H75.2999ZM50.15 198.92C51.1818 199.03 52.2294 199.125 53.3006 199.203H53.3873C53.6048 199.203 53.7811 199.027 53.7811 198.81C53.7811 198.593 53.6048 198.416 53.3873 198.416C52.2924 198.338 51.2527 198.243 50.2366 198.141C50.1325 198.125 50.0266 198.154 49.9443 198.22C49.8621 198.285 49.811 198.382 49.8034 198.487C49.7804 198.702 49.9351 198.895 50.15 198.92ZM69.0144 199.258C68.8072 199.258 68.6369 199.095 68.6284 198.888C68.6219 198.784 68.6574 198.681 68.7268 198.603C68.7963 198.525 68.8941 198.478 68.9986 198.471C70.0462 198.424 71.0938 198.361 72.1492 198.291C72.2542 198.282 72.3582 198.316 72.4371 198.386C72.5159 198.456 72.5627 198.555 72.5667 198.66C72.5754 198.764 72.5418 198.867 72.4736 198.945C72.4053 199.024 72.3083 199.071 72.2044 199.077C71.1568 199.148 70.1092 199.211 69.0537 199.258H69.0144ZM56.7874 199.399C57.6932 199.434 58.6218 199.471 59.5625 199.471H59.5704C59.6783 199.475 59.7833 199.436 59.8618 199.362C59.9404 199.288 59.9858 199.185 59.9878 199.077C59.9878 198.973 59.9463 198.873 59.8725 198.799C59.7986 198.725 59.6984 198.684 59.594 198.684C58.5149 198.668 57.4673 198.637 56.4434 198.597C56.3389 198.593 56.237 198.631 56.1602 198.701C56.0834 198.772 56.0379 198.871 56.0338 198.975C56.0292 199.191 56.1962 199.372 56.4119 199.384L56.7874 199.399ZM62.3193 199.077C62.3235 199.293 62.4974 199.467 62.7131 199.471H62.721L64.6035 199.431L65.8716 199.392C65.9775 199.39 66.0781 199.345 66.1507 199.269C66.2233 199.192 66.2618 199.089 66.2576 198.983C66.2411 198.769 66.0624 198.605 65.848 198.605L64.5799 198.645L62.7052 198.684C62.4908 198.688 62.3192 198.863 62.3193 199.077ZM99.7959 195.002C99.8361 195.183 99.9958 195.313 100.182 195.316L100.261 195.308L103.348 194.663C103.45 194.643 103.54 194.582 103.596 194.494C103.652 194.407 103.671 194.3 103.648 194.199C103.627 194.097 103.566 194.007 103.479 193.949C103.392 193.892 103.285 193.871 103.183 193.892L100.103 194.537C100.001 194.558 99.9109 194.619 99.8533 194.706C99.7956 194.793 99.775 194.899 99.7959 195.002ZM112.052 192.161C112.078 192.375 112.269 192.528 112.482 192.509C112.519 192.519 112.558 192.518 112.595 192.507C113.619 192.256 114.635 191.993 115.644 191.721C115.784 191.684 115.895 191.575 115.933 191.435C115.972 191.295 115.933 191.145 115.831 191.042C115.729 190.938 115.579 190.897 115.439 190.934L112.398 191.721C112.181 191.747 112.026 191.944 112.052 192.161ZM124.221 188.786C124.268 188.951 124.42 189.064 124.591 189.061V189.069C124.632 189.069 124.672 189.061 124.709 189.045C125.726 188.731 126.726 188.416 127.718 188.093C127.925 188.026 128.038 187.804 127.97 187.598C127.94 187.497 127.87 187.414 127.776 187.366C127.682 187.319 127.573 187.311 127.474 187.346C127.201 187.432 126.929 187.519 126.656 187.607C125.935 187.837 125.212 188.067 124.481 188.29C124.38 188.321 124.296 188.391 124.247 188.484C124.199 188.577 124.189 188.686 124.221 188.786ZM136.524 185.04C136.36 185.036 136.214 184.934 136.154 184.781C136.08 184.577 136.186 184.351 136.39 184.277C137.069 184.032 137.736 183.783 138.4 183.535L138.403 183.534L138.404 183.533C138.718 183.416 139.031 183.3 139.344 183.184C139.538 183.134 139.739 183.239 139.809 183.426C139.88 183.614 139.798 183.824 139.62 183.915C138.643 184.285 137.659 184.647 136.658 185.009C136.618 185.034 136.572 185.048 136.524 185.048V185.04ZM147.898 180.217C147.955 180.367 148.1 180.465 148.26 180.461C148.312 180.462 148.363 180.451 148.41 180.43L151.316 179.202C151.517 179.115 151.608 178.883 151.521 178.683C151.434 178.483 151.202 178.391 151.001 178.478C150.299 178.806 149.583 179.099 148.857 179.396L148.857 179.396C148.607 179.498 148.355 179.601 148.103 179.706C147.907 179.792 147.816 180.019 147.898 180.217Z" fill="#D1D3D4"/>
<path d="M27.8358 135.77C27.7157 135.771 27.6021 135.715 27.5286 135.62C27.3955 135.446 27.4271 135.197 27.5995 135.062C28.0248 134.747 28.4502 134.432 28.8834 134.125C28.9984 134.036 29.1533 134.018 29.2861 134.078C29.4189 134.137 29.5079 134.265 29.5176 134.41C29.5273 134.555 29.456 134.694 29.3323 134.771C28.907 135.07 28.4896 135.377 28.08 135.691C28.0097 135.744 27.9237 135.772 27.8358 135.77Z" fill="#D1D3D4"/>
<path d="M204.475 88.7569C204.375 88.76 204.277 88.7199 204.208 88.6468C204.134 88.5742 204.092 88.475 204.092 88.3714C204.092 88.2677 204.134 88.1685 204.208 88.096C204.208 88.096 204.594 87.6868 205.263 86.9472C205.349 86.821 205.501 86.756 205.652 86.7805C205.803 86.8051 205.926 86.9147 205.967 87.0618C206.009 87.2088 205.962 87.3666 205.846 87.4665C205.169 88.2533 204.775 88.6389 204.775 88.6389C204.697 88.7199 204.588 88.763 204.475 88.7569Z" fill="#D1D3D4"/>
<path fill-rule="evenodd" clip-rule="evenodd" d="M205.303 17.243H205.373V17.2194C205.557 17.2241 205.718 17.0991 205.759 16.9204C205.793 16.7061 205.65 16.504 205.436 16.4641C204.378 16.2831 203.31 16.1622 202.239 16.1022C202.132 16.0885 202.026 16.1214 201.946 16.1922C201.866 16.2631 201.82 16.3651 201.821 16.472C201.815 16.5763 201.85 16.679 201.919 16.7572C201.989 16.8355 202.087 16.8829 202.191 16.889C203.234 16.946 204.273 17.0642 205.303 17.243ZM211.438 19.0921C211.384 19.1029 211.328 19.1029 211.273 19.0921C210.324 18.6606 209.348 18.2926 208.351 17.9905C208.21 17.9498 208.102 17.8371 208.067 17.695C208.032 17.5529 208.075 17.4029 208.181 17.3016C208.287 17.2003 208.438 17.1629 208.579 17.2037C209.612 17.5128 210.622 17.8914 211.604 18.3367C211.699 18.3795 211.772 18.4587 211.808 18.5565C211.844 18.6543 211.838 18.7623 211.793 18.856C211.726 18.9894 211.588 19.0722 211.438 19.0685V19.0921ZM216.479 22.4361C216.553 22.4956 216.645 22.5288 216.739 22.5305V22.5069C216.838 22.5069 216.933 22.4704 217.007 22.4046C217.158 22.2489 217.158 22.0016 217.007 21.8459C216.199 21.1293 215.338 20.4744 214.431 19.8868C214.313 19.8017 214.158 19.7888 214.027 19.8531C213.896 19.9175 213.812 20.0487 213.808 20.1941C213.803 20.3396 213.88 20.4756 214.006 20.5477C214.877 21.1137 215.704 21.745 216.479 22.4361ZM220.788 27.3852C220.651 27.3862 220.524 27.318 220.449 27.2042C219.906 26.3179 219.301 25.4713 218.638 24.6706C218.502 24.503 218.526 24.2573 218.693 24.1199C218.771 24.0517 218.874 24.0182 218.978 24.0271C219.082 24.036 219.178 24.0865 219.244 24.1671C219.928 24.9885 220.554 25.856 221.119 26.7636C221.176 26.8516 221.196 26.9594 221.172 27.0619C221.148 27.1645 221.083 27.2528 220.993 27.3065C220.931 27.344 220.86 27.3631 220.788 27.3616V27.3852ZM223.041 32.8693C223.095 33.0309 223.248 33.139 223.419 33.1368V33.1132C223.46 33.123 223.502 33.1257 223.545 33.1211C223.748 33.0504 223.857 32.8295 223.789 32.6254C223.459 31.6055 223.072 30.6046 222.631 29.6276C222.572 29.4997 222.449 29.413 222.308 29.4002C222.168 29.3874 222.031 29.4503 221.95 29.5654C221.869 29.6805 221.855 29.8302 221.914 29.9581C222.343 30.9071 222.719 31.879 223.041 32.8693ZM224.844 39.3055C224.648 39.3041 224.481 39.161 224.45 38.9672C224.301 37.9128 224.104 36.8742 223.875 35.8828C223.828 35.6656 223.965 35.4507 224.183 35.4029C224.4 35.3551 224.615 35.4925 224.663 35.7097C224.891 36.7169 225.088 37.7791 225.246 38.857C225.274 39.0711 225.128 39.2693 224.915 39.3055H224.844ZM224.962 45.2146C224.967 45.4287 225.142 45.6001 225.356 45.6001H225.364C225.58 45.5916 225.75 45.4144 225.75 45.1988C225.726 44.113 225.671 43.0429 225.593 42.0122C225.584 41.9077 225.535 41.8108 225.455 41.7428C225.375 41.6749 225.272 41.6416 225.167 41.6503C225.063 41.6563 224.966 41.7039 224.898 41.7824C224.83 41.861 224.796 41.9637 224.805 42.0673C224.884 43.0901 224.962 44.1445 224.962 45.2146ZM225.175 51.9419H225.136C224.921 51.9211 224.763 51.7317 224.781 51.517C224.781 51.3285 224.802 51.1426 224.822 50.9563C224.838 50.816 224.853 50.6755 224.86 50.5335C224.86 50.088 224.886 49.6455 224.912 49.2094L224.912 49.2093C224.929 48.9291 224.945 48.6515 224.955 48.3776C224.954 48.2725 224.997 48.172 225.073 48.0992C225.149 48.0265 225.251 47.9877 225.356 47.992C225.572 48.0005 225.742 48.1777 225.742 48.3933C225.742 48.9385 225.71 49.4883 225.678 50.0496L225.678 50.0497C225.667 50.2255 225.657 50.4024 225.648 50.5807C225.648 50.8322 225.622 51.0795 225.595 51.3288C225.586 51.4148 225.577 51.501 225.569 51.5878C225.545 51.7878 225.377 51.9393 225.175 51.9419ZM223.734 58.142H223.852H223.883C224.036 58.1435 224.177 58.0581 224.246 57.9217C224.545 56.828 224.813 55.7816 225.033 54.7744C225.072 54.5624 224.937 54.3574 224.726 54.3102C224.515 54.2663 224.308 54.3994 224.261 54.6092C224.057 55.5927 223.789 56.6156 223.474 57.6463C223.412 57.8546 223.527 58.0744 223.734 58.142ZM221.56 64.0589C221.505 64.0702 221.449 64.0702 221.394 64.0589C221.299 64.0162 221.226 63.9369 221.19 63.8391C221.154 63.7413 221.16 63.6333 221.205 63.5396C221.654 62.5561 222.072 61.5804 222.434 60.6363C222.471 60.5377 222.546 60.4581 222.642 60.4153C222.738 60.3724 222.848 60.3698 222.946 60.4081C223.148 60.4885 223.25 60.7154 223.174 60.9195C222.796 61.8794 222.387 62.8708 221.922 63.8622C221.851 63.9787 221.727 64.0524 221.591 64.0589H221.56ZM218.441 69.6454C218.499 69.6827 218.568 69.7018 218.638 69.7004H218.669C218.797 69.6891 218.912 69.6156 218.976 69.5037C219.52 68.5596 220.04 67.6232 220.512 66.7027C220.612 66.5093 220.536 66.2715 220.343 66.1715C220.149 66.0716 219.911 66.1473 219.811 66.3407C219.346 67.2456 218.834 68.1819 218.299 69.1103C218.245 69.1997 218.23 69.307 218.256 69.4078C218.283 69.5086 218.35 69.5943 218.441 69.6454ZM215.266 75.0823C215.119 75.0869 214.981 75.0069 214.913 74.8763C214.844 74.7458 214.856 74.5874 214.943 74.4686C215.518 73.6109 216.101 72.7297 216.668 71.817C216.786 71.6357 217.026 71.5801 217.212 71.6911C217.394 71.8086 217.447 72.0514 217.33 72.234C216.787 73.1074 216.204 74.0044 215.597 74.9092C215.529 75.0099 215.419 75.0738 215.298 75.0823H215.266ZM211.328 80.173C211.398 80.221 211.48 80.2483 211.564 80.2517L211.596 80.2675C211.712 80.2554 211.816 80.1918 211.879 80.0944C212.502 79.2839 213.132 78.4263 213.778 77.5293C213.904 77.3512 213.862 77.1046 213.683 76.9785C213.505 76.8525 213.258 76.8948 213.132 77.073C212.494 77.9621 211.864 78.8276 211.257 79.6144C211.124 79.7887 211.156 80.0374 211.328 80.173ZM207.366 85.1143C207.439 85.1749 207.531 85.2083 207.626 85.2087C207.756 85.2216 207.883 85.1683 207.965 85.0671C208.579 84.3432 209.264 83.517 209.989 82.6043C210.056 82.5236 210.086 82.4194 210.074 82.3156C210.063 82.2118 210.009 82.1172 209.926 82.0535C209.756 81.9196 209.51 81.9478 209.375 82.1165C209.034 82.5265 208.705 82.9313 208.388 83.3203L208.388 83.3205C208.03 83.7601 207.688 84.1795 207.366 84.5635C207.292 84.636 207.25 84.7353 207.25 84.8389C207.25 84.9425 207.292 85.0418 207.366 85.1143Z" fill="#D1D3D4"/>
<path d="M197.442 17.0147C197.301 17.026 197.165 16.9614 197.085 16.8453C197.005 16.7292 196.993 16.5792 197.053 16.4519C197.114 16.3245 197.238 16.2392 197.379 16.2279C197.901 16.1464 198.426 16.0939 198.954 16.0705C199.172 16.0575 199.358 16.2231 199.371 16.4404C199.385 16.6576 199.219 16.8443 199.001 16.8574C198.048 16.9124 197.481 16.999 197.481 16.999L197.442 17.0147Z" fill="#D1D3D4"/>
<path d="M1.96775 52.0145C1.06545 50.9117 1.22886 49.2861 2.33259 48.3849L25.1849 29.7269C26.287 28.8271 27.9098 28.9902 28.8107 30.0914L38.042 41.3739C38.9443 42.4767 38.7809 44.1023 37.6772 45.0035L14.8248 63.6615C13.7227 64.5613 12.1 64.3982 11.199 63.297L1.96775 52.0145Z" fill="white"/>
<path fill-rule="evenodd" clip-rule="evenodd" d="M12.8781 64.869H13.1223C13.6744 64.8701 14.2095 64.678 14.6346 64.3261L38.3824 44.9389C38.8797 44.5425 39.196 43.9625 39.2598 43.3302C39.3235 42.6979 39.1293 42.0666 38.7211 41.5791L28.7494 29.3913C28.3526 28.8945 27.7721 28.5785 27.139 28.5148C26.506 28.4511 25.8741 28.6451 25.3861 29.0529L1.63829 48.4481C1.14097 48.8444 0.824668 49.4244 0.760922 50.0567C0.697177 50.6891 0.891379 51.3203 1.2996 51.8078L11.3028 64.0035C11.6933 64.4881 12.2594 64.7992 12.8781 64.869ZM25.8823 29.6588C26.1718 29.4304 26.5296 29.3057 26.8984 29.3047C27.3846 29.304 27.8439 29.5276 28.1429 29.9106L38.1146 42.0748C38.3898 42.4007 38.5209 42.8242 38.4779 43.2483C38.4348 43.6725 38.2213 44.0611 37.8862 44.3251L14.1541 63.7203C13.8243 63.9871 13.403 64.1142 12.9805 64.0744C12.5569 64.0339 12.1676 63.8238 11.9014 63.4921L1.92972 51.3121C1.66291 50.9795 1.53584 50.5563 1.57528 50.1319C1.60984 49.7123 1.81126 49.3241 2.13451 49.0539L25.8823 29.6588Z" fill="#D1D3D4"/>
<path d="M1.1816 50.3681C0.9641 50.3681 0.787777 50.192 0.787777 49.9747C0.776832 49.8711 0.808331 49.7675 0.875101 49.6875C0.941871 49.6074 1.03823 49.5578 1.14222 49.5498L20.936 47.8346L26.5599 28.8014C26.5872 28.7 26.6548 28.6141 26.747 28.5636C26.8391 28.5131 26.9479 28.5024 27.0482 28.5338C27.2538 28.5981 27.3697 28.8154 27.3081 29.0217L21.6213 48.3145C21.579 48.4705 21.4437 48.5836 21.2826 48.5978L1.22099 50.3681H1.1816Z" fill="#D1D3D4"/>
<path d="M22.0545 45.7731C21.837 45.7731 21.6606 45.597 21.6606 45.3797C21.6606 45.1624 21.837 44.9863 22.0545 44.9863L38.8 43.0743C39.0138 43.0556 39.2046 43.208 39.2332 43.4205C39.2466 43.525 39.2174 43.6304 39.1522 43.7133C39.0871 43.7961 38.9914 43.8493 38.8867 43.8611L22.1254 45.7731H22.0545Z" fill="#D1D3D4"/>
<path d="M13.0987 64.8692C13.0597 64.8767 13.0196 64.8767 12.9806 64.8692C12.8801 64.8387 12.7964 64.7685 12.7489 64.675C12.7013 64.5815 12.694 64.4726 12.7285 64.3735L17.9349 48.3617C17.9785 48.2212 18.0939 48.1145 18.2376 48.082C18.3812 48.0494 18.5314 48.0959 18.6314 48.2039C18.7314 48.312 18.7662 48.4651 18.7226 48.6056L13.5162 64.6174C13.4498 64.7858 13.2788 64.8889 13.0987 64.8692Z" fill="#D1D3D4"/>
<path d="M214.901 105.88C215.356 104.832 216.574 104.35 217.623 104.804L239.398 114.235C240.448 114.69 240.93 115.91 240.474 116.96L235.807 127.714C235.351 128.763 234.133 129.244 233.084 128.79L211.309 119.359C210.26 118.904 209.777 117.684 210.233 116.634L214.901 105.88Z" fill="white"/>
<path fill-rule="evenodd" clip-rule="evenodd" d="M233.375 129.326C233.624 129.433 233.891 129.489 234.162 129.491C234.417 129.483 234.669 129.427 234.903 129.326C235.395 129.132 235.789 128.749 235.998 128.263L241.039 116.674C241.243 116.185 241.243 115.635 241.039 115.147C240.844 114.654 240.462 114.257 239.975 114.046L217.346 104.25C216.332 103.816 215.158 104.279 214.715 105.288L209.682 116.894C209.481 117.386 209.481 117.936 209.682 118.428C209.877 118.922 210.263 119.316 210.753 119.522L233.375 129.326ZM215.495 105.603C215.686 105.16 216.122 104.873 216.605 104.871C216.761 104.874 216.913 104.909 217.054 104.974L239.668 114.777C239.966 114.902 240.2 115.144 240.314 115.446C240.436 115.741 240.436 116.072 240.314 116.367L235.273 127.98C235.149 128.276 234.91 128.509 234.611 128.625C234.313 128.747 233.98 128.747 233.682 128.625L211.052 118.822C210.446 118.559 210.165 117.856 210.422 117.248L215.495 105.603Z" fill="#D1D3D4"/>
<path d="M224.742 118.617C224.607 118.62 224.481 118.551 224.411 118.436L215.747 104.761C215.632 104.576 215.688 104.333 215.873 104.218C216.058 104.103 216.301 104.159 216.416 104.344L224.907 117.791L240.542 114.793C240.645 114.77 240.752 114.789 240.84 114.847C240.928 114.905 240.988 114.996 241.007 115.1C241.046 115.314 240.906 115.52 240.692 115.564L224.797 118.617H224.742Z" fill="#D1D3D4"/>
<path d="M234.619 129.42C234.487 129.42 234.363 129.356 234.288 129.247L226.742 118.035C226.624 117.854 226.673 117.612 226.853 117.492C226.939 117.433 227.045 117.411 227.148 117.432C227.25 117.453 227.34 117.514 227.396 117.602L234.942 128.846C235.061 129.029 235.012 129.274 234.832 129.397C234.764 129.423 234.691 129.431 234.619 129.42Z" fill="#D1D3D4"/>
<path d="M210.107 118.821C209.912 118.824 209.745 118.683 209.714 118.491C209.698 118.388 209.724 118.282 209.786 118.198C209.848 118.114 209.941 118.058 210.044 118.042L223.434 115.855C223.575 115.833 223.717 115.887 223.807 115.997C223.897 116.108 223.921 116.258 223.87 116.391C223.819 116.524 223.701 116.619 223.56 116.642L210.17 118.829L210.107 118.821Z" fill="#D1D3D4"/>
<path d="M63.3648 13.6849C63.6277 12.8925 64.483 12.4631 65.2756 12.7255L81.7459 18.1796C82.5391 18.4422 82.969 19.2985 82.7058 20.0916L80.0053 28.2294C79.7424 29.0218 78.8871 29.4513 78.0945 29.1888L61.6242 23.7348C60.831 23.4721 60.4011 22.6159 60.6643 21.8228L63.3648 13.6849Z" fill="white"/>
<path fill-rule="evenodd" clip-rule="evenodd" d="M78.2773 29.659C78.435 29.7108 78.5998 29.7374 78.7657 29.7377C79.445 29.7383 80.0482 29.3039 80.2622 28.6598L83.1687 19.8789C83.4391 19.0578 82.996 18.1726 82.1762 17.8961L65.0605 12.2309C64.2387 11.9666 63.357 12.4122 63.0835 13.2302L60.1691 22.0111C60.0389 22.4056 60.07 22.8355 60.2558 23.2071C60.4419 23.5785 60.7675 23.8614 61.1616 23.9939L78.2773 29.659ZM79.1201 28.9116C78.9284 28.9903 78.7133 28.9903 78.5215 28.9116L61.4294 23.2858C61.2323 23.2223 61.0682 23.0838 60.9725 22.9002C60.8978 22.7079 60.8978 22.4946 60.9725 22.3023L63.8869 13.5213C63.9522 13.3274 64.0907 13.1665 64.2728 13.0728C64.4583 12.9788 64.6735 12.9618 64.8714 13.0256L81.9872 18.6908C82.1827 18.7579 82.344 18.8992 82.4362 19.0842C82.5149 19.2757 82.5149 19.4906 82.4362 19.6821L79.514 28.4552C79.4485 28.6535 79.3068 28.8177 79.1201 28.9116Z" fill="#D1D3D4"/>
<path d="M71.3224 22.4358C71.1988 22.4345 71.0825 22.3765 71.0074 22.2784L63.8003 12.8837C63.6835 12.7117 63.7209 12.4786 63.8856 12.3516C64.0503 12.2245 64.2855 12.2474 64.4226 12.4038L71.4406 21.586L82.5623 18.4387C82.6636 18.4098 82.7723 18.4226 82.8641 18.4744C82.9559 18.5261 83.0231 18.6125 83.0506 18.7141C83.1059 18.9225 82.983 19.1366 82.7749 19.194L71.4012 22.4515L71.3224 22.4358Z" fill="#D1D3D4"/>
<path d="M79.2145 29.6588C79.0941 29.6607 78.9801 29.6052 78.9073 29.5093L72.6849 21.8142C72.5478 21.6447 72.5743 21.3964 72.7439 21.2595C72.9136 21.1226 73.1622 21.149 73.2992 21.3185L79.5217 29.0215C79.6558 29.1912 79.6276 29.4371 79.4587 29.5723C79.3891 29.6272 79.3033 29.6577 79.2145 29.6588Z" fill="#D1D3D4"/>
<path d="M60.6495 23.5219C60.5088 23.5388 60.3698 23.4794 60.2848 23.3661C60.1998 23.2528 60.1818 23.1028 60.2375 22.9727C60.2933 22.8425 60.4143 22.7519 60.555 22.7351L70.1486 20.2802C70.2499 20.2539 70.3576 20.269 70.4477 20.3222C70.5379 20.3753 70.6031 20.4621 70.6291 20.5635C70.6552 20.6637 70.6399 20.7702 70.5865 20.859C70.5332 20.9478 70.4463 21.0114 70.3455 21.0355L60.7519 23.4983L60.6495 23.5219Z" fill="#D1D3D4"/>
</svg>
